<svg width="613" height="583" viewBox="0 0 613 583" fill="none" xmlns="http://www.w3.org/2000/svg">
<path d="M566.552 262.381C566.552 262.381 564.894 263.349 561.74 265.164C560.158 266.056 558.208 267.164 555.9 268.458C553.591 269.741 550.937 271.198 547.935 272.828C546.439 273.633 544.857 274.481 543.199 275.351C541.531 276.242 539.786 277.144 537.965 278.079C536.145 279.014 534.248 279.971 532.265 280.96C530.293 281.939 528.234 282.95 526.11 283.961C523.976 284.972 521.776 285.994 519.511 287.026C517.235 288.059 514.895 289.103 512.478 290.135C510.062 291.168 507.58 292.19 505.033 293.19C502.487 294.212 499.875 295.18 497.199 296.18C494.511 297.126 491.77 298.082 488.974 298.985C487.565 299.452 486.156 299.887 484.726 300.333C483.285 300.757 481.844 301.17 480.381 301.583C478.918 301.996 477.444 302.398 475.948 302.779C474.464 303.17 472.958 303.54 471.441 303.899C469.913 304.246 468.385 304.594 466.835 304.91C465.285 305.236 463.725 305.551 462.154 305.844C460.582 306.138 458.989 306.41 457.386 306.671C455.782 306.921 454.167 307.16 452.542 307.377C450.916 307.595 449.28 307.78 447.622 307.964C445.975 308.127 444.306 308.291 442.626 308.432C440.958 308.562 439.267 308.671 437.566 308.769C435.854 308.845 434.142 308.91 432.419 308.954C430.696 308.986 428.951 309.008 427.206 308.997C425.462 308.986 423.706 308.954 421.929 308.921C420.163 308.856 418.385 308.769 416.587 308.671C414.788 308.551 412.989 308.421 411.179 308.269C409.369 308.117 407.538 307.932 405.707 307.736C403.875 307.519 402.033 307.29 400.18 307.029C398.327 306.769 396.463 306.497 394.589 306.182C392.714 305.877 390.839 305.54 388.943 305.192C387.046 304.833 385.15 304.442 383.232 304.051C381.336 303.648 379.418 303.214 377.478 302.768C375.56 302.322 373.631 301.855 371.68 301.366C369.741 300.865 367.79 300.355 365.829 299.822C363.867 299.289 361.906 298.735 359.923 298.169C357.951 297.593 355.968 297.006 353.974 296.408C351.991 295.799 349.997 295.18 347.992 294.538C345.987 293.908 343.972 293.245 341.956 292.592C339.94 291.918 337.914 291.244 335.877 290.559C333.85 289.864 331.813 289.157 329.776 288.461C327.728 287.744 325.691 287.037 323.664 286.331C321.627 285.624 319.601 284.896 317.585 284.189C315.569 283.471 313.554 282.765 311.549 282.047C309.544 281.341 307.55 280.634 305.556 279.927C303.573 279.232 301.59 278.536 299.607 277.84C297.635 277.155 295.674 276.481 293.712 275.796C291.751 275.133 289.8 274.47 287.861 273.829C285.91 273.165 283.981 272.535 282.052 271.893C280.123 271.274 278.205 270.665 276.298 270.056C274.391 269.458 272.484 268.882 270.598 268.306C268.691 267.73 266.816 267.186 264.952 266.643C263.067 266.11 261.203 265.577 259.361 265.066C257.508 264.577 255.666 264.088 253.823 263.61C251.992 263.142 250.172 262.686 248.362 262.251C246.541 261.816 244.742 261.403 242.944 261C241.156 260.598 239.378 260.229 237.601 259.859C235.835 259.5 234.079 259.152 232.324 258.826C230.579 258.511 228.845 258.207 227.112 257.913C225.389 257.63 223.676 257.348 221.975 257.098C220.274 256.848 218.583 256.608 216.904 256.391C215.224 256.184 213.566 255.978 211.908 255.793C210.261 255.608 208.614 255.445 206.988 255.293C205.363 255.141 203.748 255.01 202.144 254.88C200.552 254.76 198.959 254.663 197.387 254.565C195.805 254.478 194.245 254.391 192.706 254.326C191.156 254.271 189.618 254.228 188.1 254.184C186.583 254.152 185.077 254.13 183.582 254.108C182.097 254.097 180.623 254.108 179.16 254.097C177.698 254.108 176.235 254.141 174.815 254.173C173.385 254.195 171.965 254.239 170.567 254.271C167.75 254.402 165.008 254.51 162.342 254.652C159.666 254.815 157.054 255.01 154.508 255.173C151.95 255.402 149.469 255.619 147.063 255.837C144.646 256.076 142.306 256.304 140.03 256.532C137.754 256.793 135.555 257.043 133.431 257.293C131.307 257.554 129.248 257.793 127.276 258.033C125.293 258.283 123.396 258.533 121.576 258.761C119.744 259.011 118 259.239 116.342 259.446C114.684 259.663 113.102 259.881 111.606 260.066C108.604 260.468 105.95 260.816 103.641 261.109C101.333 261.403 99.3827 261.631 97.8005 261.838C94.6471 262.207 93 262.381 93 262.381C93 262.381 94.6471 261.392 97.8005 259.587C99.3827 258.685 101.333 257.587 103.641 256.293C105.95 255 108.604 253.543 111.606 251.923C113.102 251.108 114.684 250.26 116.342 249.39C118 248.498 119.744 247.607 121.576 246.661C123.396 245.737 125.293 244.77 127.276 243.78C129.248 242.802 131.307 241.802 133.431 240.769C135.555 239.769 137.754 238.747 140.03 237.703C142.306 236.681 144.646 235.66 147.063 234.616C149.469 233.594 151.95 232.572 154.508 231.55C157.054 230.55 159.666 229.561 162.342 228.582C165.008 227.626 167.75 226.68 170.567 225.756C171.965 225.299 173.385 224.864 174.815 224.429C176.235 224.005 177.698 223.571 179.16 223.168C180.623 222.755 182.097 222.353 183.582 221.973C185.077 221.581 186.583 221.212 188.1 220.853C189.618 220.505 191.156 220.157 192.706 219.82C194.245 219.505 195.805 219.2 197.387 218.907C198.959 218.613 200.552 218.342 202.144 218.092C203.748 217.831 205.363 217.591 206.988 217.374C208.614 217.157 210.261 216.972 211.908 216.787C213.566 216.624 215.224 216.461 216.904 216.319C218.583 216.189 220.274 216.08 221.975 215.982C223.676 215.906 225.389 215.83 227.112 215.798C228.845 215.765 230.579 215.743 232.324 215.754C234.079 215.754 235.835 215.798 237.601 215.83C239.378 215.896 241.156 215.982 242.944 216.08C244.742 216.2 246.541 216.33 248.362 216.483C250.172 216.635 251.992 216.809 253.823 217.015C255.666 217.233 257.508 217.45 259.361 217.711C261.203 217.983 263.067 218.255 264.952 218.57C266.816 218.874 268.691 219.2 270.598 219.559C272.484 219.918 274.391 220.298 276.298 220.701C278.205 221.092 280.123 221.527 282.052 221.973C283.981 222.418 285.91 222.897 287.861 223.386C289.8 223.875 291.751 224.386 293.712 224.919C295.674 225.451 297.635 226.017 299.607 226.571C301.59 227.158 303.573 227.745 305.556 228.332C307.55 228.952 309.544 229.572 311.549 230.213C313.554 230.844 315.569 231.507 317.585 232.159C319.601 232.822 321.627 233.507 323.664 234.192C325.691 234.877 327.728 235.583 329.776 236.29C331.813 236.986 333.85 237.692 335.877 238.41C337.914 239.117 339.94 239.834 341.956 240.552C343.972 241.269 345.987 241.976 347.992 242.693C349.997 243.4 351.991 244.106 353.974 244.802C355.968 245.509 357.951 246.205 359.923 246.89C361.906 247.585 363.867 248.248 365.829 248.933C367.79 249.596 369.741 250.26 371.68 250.912C373.631 251.575 375.56 252.195 377.478 252.836C379.418 253.456 381.336 254.065 383.232 254.684C385.15 255.271 387.046 255.858 388.943 256.435C390.839 257 392.714 257.554 394.589 258.098C396.463 258.631 398.327 259.163 400.18 259.663C402.033 260.152 403.875 260.653 405.707 261.131C407.538 261.588 409.369 262.055 411.179 262.49C412.989 262.925 414.788 263.338 416.587 263.74C418.385 264.142 420.163 264.512 421.929 264.882C423.706 265.24 425.462 265.577 427.206 265.914C428.951 266.23 430.696 266.534 432.419 266.827C434.142 267.099 435.854 267.393 437.566 267.643C439.267 267.893 440.958 268.132 442.626 268.349C444.306 268.556 445.975 268.763 447.622 268.947C449.28 269.132 450.916 269.295 452.542 269.447C454.167 269.6 455.782 269.73 457.386 269.871C458.989 269.98 460.582 270.078 462.154 270.176C463.725 270.263 465.285 270.339 466.835 270.393C468.385 270.469 469.913 270.513 471.441 270.556C472.958 270.589 474.464 270.611 475.948 270.632C477.444 270.643 478.918 270.632 480.381 270.643C481.844 270.622 483.285 270.611 484.726 270.578C486.156 270.545 487.565 270.502 488.974 270.458C491.77 270.35 494.511 270.23 497.199 270.078C499.875 269.915 502.487 269.741 505.033 269.556C507.58 269.35 510.062 269.132 512.478 268.904C514.895 268.676 517.235 268.436 519.511 268.197C521.776 267.947 523.976 267.697 526.11 267.436C528.234 267.197 530.293 266.947 532.265 266.708C534.248 266.458 536.145 266.219 537.965 265.98C539.786 265.74 541.531 265.501 543.199 265.295C544.857 265.077 546.439 264.86 547.935 264.653C550.937 264.273 553.591 263.925 555.9 263.642C558.208 263.349 560.158 263.109 561.74 262.914C564.894 262.533 566.552 262.381 566.552 262.381Z" fill="url(#paint0_linear_301_15)"/>
<path d="M602 202.177C602 202.177 600.342 203.135 597.189 204.933C595.606 205.816 593.656 206.914 591.348 208.195C589.04 209.465 586.385 210.908 583.383 212.523C581.888 213.32 580.305 214.159 578.648 215.021C576.979 215.903 575.234 216.797 573.414 217.723C571.593 218.649 569.697 219.596 567.714 220.576C565.741 221.545 563.682 222.546 561.558 223.547C559.424 224.548 557.224 225.56 554.959 226.583C552.683 227.606 550.343 228.639 547.926 229.662C545.51 230.685 543.028 231.697 540.482 232.687C537.935 233.699 535.324 234.657 532.647 235.648C529.959 236.584 527.218 237.532 524.422 238.425C523.013 238.888 521.605 239.319 520.174 239.76C518.733 240.18 517.292 240.589 515.829 240.998C514.366 241.407 512.892 241.806 511.397 242.183C509.912 242.57 508.406 242.936 506.889 243.291C505.361 243.636 503.833 243.98 502.283 244.293C500.734 244.616 499.173 244.928 497.602 245.218C496.031 245.509 494.438 245.778 492.834 246.037C491.23 246.284 489.615 246.521 487.99 246.736C486.365 246.952 484.728 247.135 483.07 247.318C481.423 247.479 479.754 247.641 478.075 247.781C476.406 247.91 474.715 248.018 473.014 248.114C471.302 248.19 469.59 248.254 467.867 248.297C466.144 248.33 464.399 248.351 462.654 248.341C460.91 248.33 459.154 248.297 457.377 248.265C455.611 248.201 453.834 248.114 452.035 248.018C450.236 247.899 448.437 247.77 446.627 247.619C444.818 247.468 442.986 247.285 441.155 247.092C439.324 246.876 437.481 246.65 435.628 246.392C433.775 246.134 431.911 245.864 430.037 245.552C428.162 245.251 426.287 244.917 424.391 244.573C422.495 244.217 420.598 243.83 418.68 243.442C416.784 243.044 414.866 242.613 412.926 242.172C411.008 241.73 409.079 241.267 407.129 240.783C405.189 240.288 403.238 239.782 401.277 239.254C399.316 238.727 397.354 238.178 395.371 237.618C393.399 237.047 391.416 236.466 389.422 235.874C387.439 235.271 385.445 234.657 383.44 234.022C381.435 233.398 379.42 232.741 377.404 232.095C375.389 231.428 373.362 230.76 371.325 230.082C369.299 229.393 367.261 228.693 365.224 228.004C363.176 227.293 361.139 226.594 359.112 225.894C357.075 225.194 355.049 224.473 353.033 223.773C351.018 223.063 349.002 222.363 346.997 221.652C344.993 220.952 342.999 220.253 341.005 219.553C339.022 218.864 337.039 218.175 335.056 217.486C333.083 216.808 331.122 216.14 329.16 215.462C327.199 214.805 325.249 214.149 323.309 213.513C321.358 212.857 319.429 212.232 317.5 211.597C315.572 210.983 313.654 210.381 311.746 209.778C309.839 209.186 307.932 208.615 306.046 208.044C304.139 207.474 302.264 206.935 300.401 206.397C298.515 205.87 296.651 205.342 294.809 204.836C292.956 204.352 291.114 203.867 289.272 203.394C287.44 202.931 285.62 202.478 283.81 202.048C281.99 201.617 280.191 201.208 278.392 200.81C276.604 200.411 274.827 200.045 273.049 199.679C271.283 199.324 269.528 198.98 267.772 198.657C266.027 198.344 264.294 198.043 262.56 197.752C260.837 197.472 259.125 197.193 257.423 196.945C255.722 196.697 254.032 196.46 252.352 196.245C250.672 196.041 249.014 195.836 247.356 195.653C245.709 195.47 244.062 195.308 242.437 195.158C240.811 195.007 239.196 194.878 237.593 194.749C236 194.63 234.407 194.533 232.836 194.436C231.253 194.35 229.693 194.264 228.154 194.2C226.605 194.146 225.066 194.103 223.549 194.06C222.032 194.027 220.525 194.006 219.03 193.984C217.545 193.974 216.072 193.984 214.609 193.974C213.146 193.984 211.683 194.017 210.263 194.049C208.833 194.07 207.413 194.114 206.015 194.146C203.198 194.275 200.456 194.383 197.791 194.523C195.114 194.684 192.502 194.878 189.956 195.039C187.398 195.265 184.917 195.481 182.511 195.696C180.095 195.933 177.754 196.159 175.478 196.385C173.203 196.643 171.003 196.891 168.879 197.139C166.755 197.397 164.696 197.634 162.724 197.871C160.741 198.118 158.844 198.366 157.024 198.592C155.193 198.84 153.448 199.066 151.79 199.27C150.132 199.486 148.55 199.701 147.054 199.884C144.053 200.282 141.398 200.627 139.09 200.917C136.781 201.208 134.831 201.434 133.249 201.639C130.095 202.005 128.448 202.177 128.448 202.177C128.448 202.177 130.095 201.197 133.249 199.41C134.831 198.517 136.781 197.429 139.09 196.148C141.398 194.867 144.053 193.424 147.054 191.82C148.55 191.013 150.132 190.173 151.79 189.312C153.448 188.429 155.193 187.546 157.024 186.61C158.844 185.695 160.741 184.737 162.724 183.757C164.696 182.788 166.755 181.798 168.879 180.775C171.003 179.784 173.203 178.772 175.478 177.739C177.754 176.727 180.095 175.715 182.511 174.681C184.917 173.669 187.398 172.657 189.956 171.645C192.502 170.655 195.114 169.675 197.791 168.706C200.456 167.759 203.198 166.822 206.015 165.907C207.413 165.455 208.833 165.024 210.263 164.594C211.683 164.174 213.146 163.743 214.609 163.345C216.072 162.936 217.545 162.538 219.03 162.161C220.525 161.773 222.032 161.407 223.549 161.052C225.066 160.707 226.605 160.363 228.154 160.029C229.693 159.717 231.253 159.416 232.836 159.125C234.407 158.834 236 158.565 237.593 158.317C239.196 158.059 240.811 157.822 242.437 157.607C244.062 157.392 245.709 157.209 247.356 157.026C249.014 156.864 250.672 156.703 252.352 156.563C254.032 156.433 255.722 156.326 257.423 156.229C259.125 156.154 260.837 156.078 262.56 156.046C264.294 156.014 266.027 155.992 267.772 156.003C269.528 156.003 271.283 156.046 273.049 156.078C274.827 156.143 276.604 156.229 278.392 156.326C280.191 156.444 281.99 156.573 283.81 156.724C285.62 156.875 287.44 157.047 289.272 157.252C291.114 157.467 292.956 157.682 294.809 157.941C296.651 158.21 298.515 158.479 300.401 158.791C302.264 159.093 304.139 159.416 306.046 159.771C307.932 160.126 309.839 160.503 311.746 160.901C313.654 161.289 315.572 161.719 317.5 162.161C319.429 162.602 321.358 163.076 323.309 163.56C325.249 164.045 327.199 164.551 329.16 165.078C331.122 165.606 333.083 166.166 335.056 166.715C337.039 167.296 339.022 167.877 341.005 168.459C342.999 169.072 344.993 169.686 346.997 170.321C349.002 170.946 351.018 171.602 353.033 172.248C355.049 172.905 357.075 173.583 359.112 174.261C361.139 174.94 363.176 175.64 365.224 176.339C367.261 177.028 369.299 177.728 371.325 178.439C373.362 179.138 375.389 179.849 377.404 180.559C379.42 181.27 381.435 181.97 383.44 182.68C385.445 183.38 387.439 184.08 389.422 184.769C391.416 185.469 393.399 186.158 395.371 186.836C397.354 187.525 399.316 188.182 401.277 188.86C403.238 189.517 405.189 190.173 407.129 190.819C409.079 191.476 411.008 192.09 412.926 192.725C414.866 193.338 416.784 193.941 418.68 194.555C420.598 195.136 422.495 195.718 424.391 196.288C426.287 196.848 428.162 197.397 430.037 197.935C431.911 198.463 433.775 198.99 435.628 199.486C437.481 199.97 439.324 200.465 441.155 200.939C442.986 201.391 444.818 201.854 446.627 202.285C448.437 202.715 450.236 203.124 452.035 203.523C453.834 203.921 455.611 204.287 457.377 204.653C459.154 205.008 460.91 205.342 462.654 205.676C464.399 205.988 466.144 206.29 467.867 206.58C469.59 206.849 471.302 207.14 473.014 207.388C474.715 207.635 476.406 207.872 478.075 208.087C479.754 208.292 481.423 208.497 483.07 208.68C484.728 208.863 486.365 209.024 487.99 209.175C489.615 209.325 491.23 209.455 492.834 209.595C494.438 209.702 496.031 209.799 497.602 209.896C499.173 209.982 500.734 210.058 502.283 210.111C503.833 210.187 505.361 210.23 506.889 210.273C508.406 210.305 509.912 210.327 511.397 210.348C512.892 210.359 514.366 210.348 515.829 210.359C517.292 210.337 518.733 210.327 520.174 210.294C521.605 210.262 523.013 210.219 524.422 210.176C527.218 210.068 529.959 209.95 532.647 209.799C535.324 209.638 537.935 209.465 540.482 209.282C543.028 209.078 545.51 208.863 547.926 208.636C550.343 208.41 552.683 208.174 554.959 207.937C557.224 207.689 559.424 207.441 561.558 207.183C563.682 206.946 565.741 206.699 567.714 206.462C569.697 206.214 571.593 205.977 573.414 205.74C575.234 205.504 576.979 205.267 578.648 205.062C580.305 204.847 581.888 204.632 583.383 204.427C586.385 204.05 589.04 203.706 591.348 203.426C593.656 203.135 595.606 202.898 597.189 202.705C600.342 202.328 602 202.177 602 202.177Z" fill="url(#paint1_linear_301_15)"/>
<path d="M484.552 380.076C484.552 380.076 482.894 381.05 479.74 382.878C478.158 383.775 476.208 384.891 473.9 386.193C471.591 387.484 468.937 388.951 465.935 390.592C464.439 391.402 462.857 392.255 461.199 393.131C459.531 394.028 457.786 394.936 455.965 395.877C454.145 396.818 452.248 397.781 450.265 398.777C448.293 399.762 446.234 400.779 444.11 401.797C441.975 402.815 439.776 403.843 437.511 404.883C435.235 405.922 432.895 406.973 430.478 408.012C428.062 409.052 425.58 410.08 423.033 411.087C420.487 412.116 417.875 413.089 415.199 414.096C412.511 415.048 409.77 416.011 406.974 416.919C405.565 417.39 404.156 417.827 402.726 418.276C401.285 418.703 399.844 419.119 398.381 419.534C396.918 419.95 395.444 420.355 393.948 420.738C392.464 421.132 390.958 421.504 389.441 421.865C387.913 422.215 386.385 422.565 384.835 422.883C383.285 423.211 381.725 423.528 380.154 423.824C378.582 424.119 376.989 424.393 375.386 424.655C373.782 424.907 372.167 425.148 370.542 425.367C368.916 425.586 367.28 425.772 365.622 425.958C363.975 426.122 362.306 426.286 360.626 426.428C358.958 426.559 357.267 426.669 355.566 426.767C353.854 426.844 352.142 426.91 350.419 426.953C348.696 426.986 346.951 427.008 345.206 426.997C343.462 426.986 341.706 426.953 339.929 426.921C338.163 426.855 336.385 426.767 334.587 426.669C332.788 426.549 330.989 426.417 329.179 426.264C327.369 426.111 325.538 425.925 323.707 425.728C321.875 425.509 320.033 425.279 318.18 425.017C316.327 424.754 314.463 424.48 312.589 424.163C310.714 423.857 308.839 423.517 306.943 423.167C305.046 422.806 303.15 422.412 301.232 422.018C299.336 421.614 297.418 421.176 295.478 420.727C293.56 420.279 291.631 419.808 289.68 419.316C287.741 418.812 285.79 418.298 283.829 417.762C281.867 417.226 279.906 416.668 277.923 416.099C275.951 415.519 273.968 414.928 271.974 414.326C269.991 413.713 267.997 413.089 265.992 412.444C263.987 411.809 261.972 411.142 259.956 410.485C257.94 409.807 255.914 409.128 253.877 408.439C251.85 407.739 249.813 407.027 247.776 406.327C245.728 405.605 243.691 404.894 241.664 404.182C239.627 403.471 237.601 402.738 235.585 402.027C233.569 401.305 231.554 400.593 229.549 399.871C227.544 399.16 225.55 398.449 223.556 397.737C221.573 397.037 219.59 396.337 217.607 395.636C215.635 394.947 213.674 394.269 211.712 393.579C209.751 392.912 207.8 392.244 205.861 391.599C203.91 390.931 201.981 390.297 200.052 389.651C198.123 389.027 196.205 388.414 194.298 387.802C192.391 387.2 190.484 386.62 188.598 386.04C186.691 385.46 184.816 384.913 182.952 384.366C181.067 383.83 179.203 383.293 177.361 382.779C175.508 382.287 173.666 381.794 171.823 381.313C169.992 380.842 168.172 380.383 166.362 379.945C164.541 379.507 162.742 379.092 160.944 378.687C159.156 378.282 157.378 377.91 155.601 377.538C153.835 377.177 152.079 376.827 150.324 376.498C148.579 376.181 146.845 375.875 145.112 375.579C143.389 375.295 141.676 375.01 139.975 374.758C138.274 374.507 136.583 374.266 134.904 374.047C133.224 373.839 131.566 373.631 129.908 373.445C128.261 373.259 126.614 373.095 124.988 372.942C123.363 372.789 121.748 372.658 120.144 372.526C118.552 372.406 116.959 372.307 115.387 372.209C113.805 372.121 112.245 372.034 110.706 371.968C109.156 371.913 107.618 371.87 106.1 371.826C104.583 371.793 103.077 371.771 101.582 371.749C100.097 371.738 98.6233 371.749 97.1604 371.738C95.6975 371.749 94.2346 371.782 92.815 371.815C91.3846 371.837 89.965 371.881 88.5671 371.913C85.7497 372.045 83.0081 372.154 80.3423 372.296C77.6657 372.461 75.0541 372.658 72.5075 372.822C69.9502 373.051 67.4686 373.27 65.0629 373.489C62.6464 373.73 60.3057 373.96 58.0301 374.189C55.7544 374.452 53.5546 374.704 51.4307 374.955C49.3068 375.218 47.2478 375.459 45.2756 375.699C43.2925 375.951 41.3962 376.203 39.5757 376.433C37.7443 376.684 35.9996 376.914 34.3417 377.122C32.6837 377.341 31.1016 377.56 29.6061 377.746C26.6045 378.151 23.9495 378.501 21.6414 378.796C19.3332 379.092 17.3827 379.321 15.8005 379.529C12.6471 379.901 11 380.076 11 380.076C11 380.076 12.6471 379.081 15.8005 377.264C17.3827 376.356 19.3332 375.251 21.6414 373.949C23.9495 372.647 26.6045 371.18 29.6061 369.55C31.1016 368.729 32.6837 367.876 34.3417 367C35.9996 366.103 37.7443 365.206 39.5757 364.254C41.3962 363.324 43.2925 362.35 45.2756 361.354C47.2478 360.369 49.3068 359.363 51.4307 358.323C53.5546 357.316 55.7544 356.288 58.0301 355.237C60.3057 354.209 62.6464 353.18 65.0629 352.13C67.4686 351.101 69.9502 350.073 72.5075 349.044C75.0541 348.037 77.6657 347.041 80.3423 346.057C83.0081 345.094 85.7497 344.142 88.5671 343.212C89.965 342.752 91.3846 342.314 92.815 341.877C94.2346 341.45 95.6975 341.012 97.1604 340.607C98.6233 340.192 100.097 339.787 101.582 339.404C103.077 339.01 104.583 338.638 106.1 338.277C107.618 337.927 109.156 337.576 110.706 337.237C112.245 336.92 113.805 336.613 115.387 336.318C116.959 336.023 118.552 335.749 120.144 335.497C121.748 335.235 123.363 334.994 124.988 334.775C126.614 334.556 128.261 334.37 129.908 334.184C131.566 334.02 133.224 333.856 134.904 333.714C136.583 333.582 138.274 333.473 139.975 333.375C141.676 333.298 143.389 333.221 145.112 333.189C146.845 333.156 148.579 333.134 150.324 333.145C152.079 333.145 153.835 333.189 155.601 333.221C157.378 333.287 159.156 333.375 160.944 333.473C162.742 333.593 164.541 333.725 166.362 333.878C168.172 334.031 169.992 334.206 171.823 334.414C173.666 334.633 175.508 334.852 177.361 335.114C179.203 335.388 181.067 335.661 182.952 335.979C184.816 336.285 186.691 336.613 188.598 336.975C190.484 337.336 192.391 337.719 194.298 338.124C196.205 338.517 198.123 338.955 200.052 339.404C201.981 339.852 203.91 340.334 205.861 340.826C207.8 341.319 209.751 341.833 211.712 342.369C213.674 342.905 215.635 343.474 217.607 344.032C219.59 344.623 221.573 345.214 223.556 345.805C225.55 346.429 227.544 347.052 229.549 347.698C231.554 348.333 233.569 349 235.585 349.657C237.601 350.324 239.627 351.014 241.664 351.703C243.691 352.392 245.728 353.104 247.776 353.815C249.813 354.515 251.85 355.226 253.877 355.949C255.914 356.66 257.94 357.382 259.956 358.104C261.972 358.826 263.987 359.538 265.992 360.26C267.997 360.971 269.991 361.682 271.974 362.383C273.968 363.094 275.951 363.794 277.923 364.484C279.906 365.184 281.867 365.851 283.829 366.541C285.79 367.208 287.741 367.876 289.68 368.532C291.631 369.2 293.56 369.823 295.478 370.469C297.418 371.093 299.336 371.706 301.232 372.329C303.15 372.92 305.046 373.511 306.943 374.091C308.839 374.66 310.714 375.218 312.589 375.765C314.463 376.301 316.327 376.837 318.18 377.341C320.033 377.833 321.875 378.337 323.707 378.818C325.538 379.278 327.369 379.748 329.179 380.186C330.989 380.624 332.788 381.039 334.587 381.444C336.385 381.849 338.163 382.221 339.929 382.593C341.706 382.954 343.462 383.293 345.206 383.633C346.951 383.95 348.696 384.256 350.419 384.552C352.142 384.825 353.854 385.121 355.566 385.373C357.267 385.624 358.958 385.865 360.626 386.084C362.306 386.292 363.975 386.5 365.622 386.686C367.28 386.872 368.916 387.036 370.542 387.189C372.167 387.342 373.782 387.473 375.386 387.616C376.989 387.725 378.582 387.824 380.154 387.922C381.725 388.01 383.285 388.086 384.835 388.141C386.385 388.218 387.913 388.261 389.441 388.305C390.958 388.338 392.464 388.36 393.948 388.382C395.444 388.393 396.918 388.382 398.381 388.393C399.844 388.371 401.285 388.36 402.726 388.327C404.156 388.294 405.565 388.25 406.974 388.207C409.77 388.097 412.511 387.977 415.199 387.824C417.875 387.659 420.487 387.484 423.033 387.298C425.58 387.09 428.062 386.872 430.478 386.642C432.895 386.412 435.235 386.171 437.511 385.931C439.776 385.679 441.975 385.427 444.11 385.165C446.234 384.924 448.293 384.672 450.265 384.431C452.248 384.18 454.145 383.939 455.965 383.698C457.786 383.458 459.531 383.217 461.199 383.009C462.857 382.79 464.439 382.571 465.935 382.363C468.937 381.98 471.591 381.63 473.9 381.346C476.208 381.05 478.158 380.81 479.74 380.613C482.894 380.23 484.552 380.076 484.552 380.076Z" fill="url(#paint2_linear_301_15)"/>
<path d="M520 319.479C520 319.479 518.342 320.443 515.189 322.253C513.607 323.141 511.656 324.247 509.348 325.536C507.04 326.815 504.385 328.267 501.383 329.892C499.888 330.694 498.305 331.539 496.648 332.406C494.979 333.295 493.234 334.194 491.414 335.126C489.593 336.058 487.697 337.012 485.714 337.998C483.741 338.973 481.682 339.981 479.558 340.988C477.424 341.996 475.224 343.015 472.959 344.044C470.683 345.074 468.343 346.114 465.926 347.143C463.51 348.173 461.028 349.191 458.482 350.188C455.935 351.207 453.324 352.171 450.647 353.168C447.959 354.111 445.218 355.065 442.422 355.964C441.013 356.43 439.605 356.863 438.174 357.308C436.733 357.73 435.292 358.142 433.829 358.554C432.366 358.966 430.892 359.367 429.397 359.746C427.912 360.136 426.406 360.504 424.889 360.862C423.361 361.209 421.833 361.555 420.283 361.87C418.734 362.195 417.173 362.509 415.602 362.802C414.031 363.094 412.438 363.365 410.834 363.625C409.23 363.874 407.615 364.113 405.99 364.329C404.365 364.546 402.728 364.73 401.07 364.915C399.423 365.077 397.754 365.24 396.075 365.381C394.406 365.511 392.715 365.619 391.014 365.716C389.302 365.792 387.59 365.857 385.867 365.901C384.144 365.933 382.399 365.955 380.654 365.944C378.91 365.933 377.154 365.901 375.377 365.868C373.611 365.803 371.834 365.716 370.035 365.619C368.236 365.5 366.437 365.37 364.627 365.218C362.818 365.066 360.986 364.882 359.155 364.687C357.324 364.47 355.481 364.243 353.628 363.983C351.775 363.723 349.911 363.452 348.037 363.137C346.162 362.834 344.287 362.498 342.391 362.151C340.495 361.794 338.598 361.404 336.68 361.014C334.784 360.613 332.866 360.179 330.926 359.735C329.008 359.291 327.079 358.825 325.129 358.337C323.189 357.839 321.238 357.329 319.277 356.798C317.316 356.267 315.354 355.715 313.371 355.151C311.399 354.577 309.416 353.992 307.422 353.396C305.439 352.789 303.445 352.171 301.44 351.532C299.435 350.904 297.42 350.243 295.404 349.592C293.389 348.921 291.362 348.249 289.325 347.566C287.299 346.872 285.261 346.168 283.224 345.475C281.176 344.759 279.139 344.055 277.112 343.351C275.075 342.646 273.049 341.92 271.033 341.216C269.018 340.501 267.002 339.797 264.997 339.081C262.992 338.377 260.999 337.673 259.005 336.968C257.022 336.275 255.039 335.581 253.056 334.888C251.083 334.205 249.122 333.533 247.16 332.851C245.199 332.19 243.249 331.529 241.309 330.889C239.358 330.228 237.429 329.6 235.501 328.96C233.572 328.343 231.654 327.736 229.746 327.129C227.839 326.533 225.932 325.959 224.046 325.385C222.139 324.81 220.264 324.268 218.401 323.727C216.515 323.196 214.651 322.665 212.809 322.155C210.956 321.668 209.114 321.18 207.272 320.703C205.44 320.237 203.62 319.782 201.81 319.349C199.99 318.915 198.191 318.504 196.392 318.103C194.604 317.702 192.827 317.333 191.049 316.965C189.283 316.607 187.528 316.261 185.772 315.935C184.027 315.621 182.294 315.318 180.56 315.025C178.837 314.743 177.125 314.462 175.423 314.213C173.722 313.963 172.032 313.725 170.352 313.508C168.672 313.302 167.014 313.096 165.356 312.912C163.709 312.728 162.062 312.565 160.437 312.414C158.811 312.262 157.196 312.132 155.593 312.002C154 311.883 152.407 311.785 150.836 311.688C149.253 311.601 147.693 311.514 146.154 311.449C144.605 311.395 143.066 311.352 141.549 311.308C140.032 311.276 138.525 311.254 137.03 311.233C135.545 311.222 134.072 311.233 132.609 311.222C131.146 311.233 129.683 311.265 128.263 311.298C126.833 311.319 125.413 311.363 124.015 311.395C121.198 311.525 118.456 311.634 115.791 311.774C113.114 311.937 110.502 312.132 107.956 312.295C105.398 312.522 102.917 312.739 100.511 312.956C98.0946 313.194 95.754 313.421 93.4783 313.649C91.2027 313.909 89.0029 314.158 86.8789 314.408C84.755 314.668 82.6961 314.906 80.7238 315.144C78.7408 315.394 76.8444 315.643 75.0239 315.87C73.1925 316.12 71.4478 316.347 69.7899 316.553C68.1319 316.77 66.5498 316.987 65.0544 317.171C62.0527 317.572 59.3977 317.918 57.0896 318.211C54.7814 318.504 52.8309 318.731 51.2487 318.937C48.0953 319.305 46.4482 319.479 46.4482 319.479C46.4482 319.479 48.0953 318.493 51.2487 316.694C52.8309 315.795 54.7814 314.7 57.0896 313.411C59.3977 312.121 62.0527 310.669 65.0544 309.055C66.5498 308.242 68.1319 307.397 69.7899 306.53C71.4478 305.641 73.1925 304.753 75.0239 303.81C76.8444 302.889 78.7408 301.924 80.7238 300.938C82.6961 299.963 84.755 298.966 86.8789 297.937C89.0029 296.94 91.2027 295.921 93.4783 294.881C95.754 293.862 98.0946 292.844 100.511 291.803C102.917 290.785 105.398 289.766 107.956 288.748C110.502 287.751 113.114 286.765 115.791 285.789C118.456 284.836 121.198 283.893 124.015 282.972C125.413 282.517 126.833 282.083 128.263 281.65C129.683 281.227 131.146 280.794 132.609 280.393C134.072 279.981 135.545 279.58 137.03 279.201C138.525 278.811 140.032 278.443 141.549 278.085C143.066 277.738 144.605 277.391 146.154 277.056C147.693 276.741 149.253 276.438 150.836 276.145C152.407 275.853 154 275.582 155.593 275.333C157.196 275.073 158.811 274.834 160.437 274.617C162.062 274.401 163.709 274.216 165.356 274.032C167.014 273.87 168.672 273.707 170.352 273.566C172.032 273.436 173.722 273.328 175.423 273.23C177.125 273.155 178.837 273.079 180.56 273.046C182.294 273.014 184.027 272.992 185.772 273.003C187.528 273.003 189.283 273.046 191.049 273.079C192.827 273.144 194.604 273.23 196.392 273.328C198.191 273.447 199.99 273.577 201.81 273.729C203.62 273.881 205.44 274.054 207.272 274.26C209.114 274.477 210.956 274.693 212.809 274.953C214.651 275.224 216.515 275.495 218.401 275.809C220.264 276.113 222.139 276.438 224.046 276.795C225.932 277.153 227.839 277.532 229.746 277.933C231.654 278.323 233.572 278.757 235.501 279.201C237.429 279.645 239.358 280.122 241.309 280.61C243.249 281.097 245.199 281.607 247.16 282.138C249.122 282.669 251.083 283.232 253.056 283.785C255.039 284.37 257.022 284.955 259.005 285.54C260.999 286.158 262.992 286.775 264.997 287.415C267.002 288.043 269.018 288.704 271.033 289.354C273.049 290.015 275.075 290.698 277.112 291.381C279.139 292.064 281.176 292.768 283.224 293.472C285.261 294.166 287.299 294.87 289.325 295.585C291.362 296.29 293.389 297.005 295.404 297.72C297.42 298.435 299.435 299.139 301.44 299.855C303.445 300.559 305.439 301.263 307.422 301.957C309.416 302.661 311.399 303.355 313.371 304.037C315.354 304.731 317.316 305.392 319.277 306.075C321.238 306.736 323.189 307.397 325.129 308.047C327.079 308.708 329.008 309.325 330.926 309.965C332.866 310.582 334.784 311.189 336.68 311.807C338.598 312.392 340.495 312.977 342.391 313.551C344.287 314.115 346.162 314.668 348.037 315.209C349.911 315.74 351.775 316.271 353.628 316.77C355.481 317.257 357.324 317.756 359.155 318.233C360.986 318.688 362.818 319.154 364.627 319.587C366.437 320.021 368.236 320.432 370.035 320.833C371.834 321.234 373.611 321.603 375.377 321.971C377.154 322.329 378.91 322.665 380.654 323.001C382.399 323.315 384.144 323.618 385.867 323.911C387.59 324.182 389.302 324.474 391.014 324.724C392.715 324.973 394.406 325.211 396.075 325.428C397.754 325.634 399.423 325.84 401.07 326.024C402.728 326.208 404.365 326.371 405.99 326.522C407.615 326.674 409.23 326.804 410.834 326.945C412.438 327.053 414.031 327.151 415.602 327.248C417.173 327.335 418.734 327.411 420.283 327.465C421.833 327.541 423.361 327.584 424.889 327.628C426.406 327.66 427.912 327.682 429.397 327.703C430.892 327.714 432.366 327.703 433.829 327.714C435.292 327.693 436.733 327.682 438.174 327.649C439.605 327.617 441.013 327.573 442.422 327.53C445.218 327.422 447.959 327.303 450.647 327.151C453.324 326.988 455.935 326.815 458.482 326.631C461.028 326.425 463.51 326.208 465.926 325.98C468.343 325.753 470.683 325.515 472.959 325.276C475.224 325.027 477.424 324.778 479.558 324.518C481.682 324.279 483.741 324.03 485.714 323.792C487.697 323.542 489.593 323.304 491.414 323.066C493.234 322.827 494.979 322.589 496.648 322.383C498.305 322.166 499.888 321.949 501.383 321.744C504.385 321.364 507.04 321.018 509.348 320.736C511.656 320.443 513.607 320.205 515.189 320.01C518.342 319.631 520 319.479 520 319.479Z" fill="url(#paint3_linear_301_15)"/>
<defs>
<linearGradient id="paint0_linear_301_15" x1="746.481" y1="455.052" x2="-64.6215" y2="224.23" gradientUnits="userSpaceOnUse">
<stop stop-color="#003CFF"/>
<stop offset="0.752892" stop-color="#D500FF"/>
</linearGradient>
<linearGradient id="paint1_linear_301_15" x1="746.481" y1="455.052" x2="-64.6215" y2="224.23" gradientUnits="userSpaceOnUse">
<stop stop-color="#003CFF"/>
<stop offset="0.752892" stop-color="#D500FF"/>
</linearGradient>
<linearGradient id="paint2_linear_301_15" x1="746.481" y1="455.052" x2="-64.6215" y2="224.23" gradientUnits="userSpaceOnUse">
<stop stop-color="#003CFF"/>
<stop offset="0.752892" stop-color="#D500FF"/>
</linearGradient>
<linearGradient id="paint3_linear_301_15" x1="746.481" y1="455.052" x2="-64.6215" y2="224.23" gradientUnits="userSpaceOnUse">
<stop stop-color="#003CFF"/>
<stop offset="0.752892" stop-color="#D500FF"/>
</linearGradient>
</defs>
</svg>
