<?xml version="1.0" encoding="UTF-8"?>
<svg id="Warstwa_1" xmlns="http://www.w3.org/2000/svg" version="1.1" xmlns:xlink="http://www.w3.org/1999/xlink" viewBox="0 0 2059 583">
  <!-- Generator: Adobe Illustrator 29.1.0, SVG Export Plug-In . SVG Version: 2.1.0 Build 142)  -->
  <defs>
    <style>
      .st0 {
        fill: url(#Gradient_bez_nazwy);
      }

      .st1 {
        fill: url(#Gradient_bez_nazwy_3);
      }

      .st2 {
        fill: url(#Gradient_bez_nazwy_4);
      }

      .st3 {
        fill: url(#Gradient_bez_nazwy_2);
      }

      .st4 {
        fill: url(#Gradient_bez_nazwy_22);
      }
    </style>
    <linearGradient id="Gradient_bez_nazwy" data-name="Gradient bez nazwy" x1="775.9" y1="197.5" x2="-35.2" y2="428.3" gradientTransform="translate(0 584) scale(1 -1)" gradientUnits="userSpaceOnUse">
      <stop offset="0" stop-color="#003cff"/>
      <stop offset=".8" stop-color="#d500ff"/>
    </linearGradient>
    <linearGradient id="Gradient_bez_nazwy_2" data-name="Gradient bez nazwy 2" x1="794.5" y1="262.5" x2="-16.6" y2="493.3" gradientTransform="translate(0 584) scale(1 -1)" gradientUnits="userSpaceOnUse">
      <stop offset="0" stop-color="#003cff"/>
      <stop offset=".8" stop-color="#d500ff"/>
    </linearGradient>
    <linearGradient id="Gradient_bez_nazwy_3" data-name="Gradient bez nazwy 3" x1="738.8" y1="67" x2="-72.3" y2="297.8" gradientTransform="translate(0 584) scale(1 -1)" gradientUnits="userSpaceOnUse">
      <stop offset="0" stop-color="#003cff"/>
      <stop offset=".8" stop-color="#d500ff"/>
    </linearGradient>
    <linearGradient id="Gradient_bez_nazwy_4" data-name="Gradient bez nazwy 4" x1="757.4" y1="132.4" x2="-53.7" y2="363.2" gradientTransform="translate(0 584) scale(1 -1)" gradientUnits="userSpaceOnUse">
      <stop offset="0" stop-color="#003cff"/>
      <stop offset=".8" stop-color="#d500ff"/>
    </linearGradient>
    <linearGradient id="Gradient_bez_nazwy_22" data-name="Gradient bez nazwy 22" x1="611.4" y1="339.5" x2="1997.4" y2="339.5" gradientUnits="userSpaceOnUse">
      <stop offset="0" stop-color="#003cff"/>
      <stop offset="0" stop-color="#9e0fff"/>
      <stop offset=".7" stop-color="#d500ff"/>
    </linearGradient>
  </defs>
  <g>
    <path class="st0" d="M576.5,262.4s-1.7,1-4.8,2.8c-1.6.9-3.5,2-5.8,3.3-2.3,1.3-5,2.7-8,4.4-1.5.8-3.1,1.7-4.7,2.5-1.7.9-3.4,1.8-5.2,2.7-1.8.9-3.7,1.9-5.7,2.9-2,1-4,2-6.2,3-2.1,1-4.3,2-6.6,3.1-2.3,1-4.6,2.1-7,3.1-2.4,1-4.9,2.1-7.4,3.1-2.5,1-5.2,2-7.8,3-2.7.9-5.4,1.9-8.2,2.8-1.4.5-2.8.9-4.2,1.3-1.4.4-2.9.8-4.3,1.2-1.5.4-2.9.8-4.4,1.2-1.5.4-3,.8-4.5,1.1-1.5.3-3.1.7-4.6,1-1.5.3-3.1.6-4.7.9-1.6.3-3.2.6-4.8.8-1.6.2-3.2.5-4.8.7-1.6.2-3.3.4-4.9.6-1.6.2-3.3.3-5,.5-1.7.1-3.4.2-5.1.3-1.7,0-3.4.1-5.1.2-1.7,0-3.5,0-5.2,0-1.7,0-3.5,0-5.3,0-1.8,0-3.5-.2-5.3-.2-1.8-.1-3.6-.2-5.4-.4-1.8-.2-3.6-.3-5.5-.5-1.8-.2-3.7-.4-5.5-.7-1.9-.3-3.7-.5-5.6-.8-1.9-.3-3.8-.6-5.6-1-1.9-.4-3.8-.8-5.7-1.1-1.9-.4-3.8-.8-5.8-1.3-1.9-.4-3.8-.9-5.8-1.4-1.9-.5-3.9-1-5.9-1.5-2-.5-3.9-1.1-5.9-1.7-2-.6-4-1.2-5.9-1.8-2-.6-4-1.2-6-1.9-2-.6-4-1.3-6-1.9-2-.7-4-1.3-6.1-2-2-.7-4.1-1.4-6.1-2.1-2-.7-4.1-1.4-6.1-2.1-2-.7-4.1-1.4-6.1-2.1-2-.7-4-1.4-6-2.1-2-.7-4-1.4-6-2.1-2-.7-4-1.4-5.9-2.1-2-.7-3.9-1.4-5.9-2-2-.7-3.9-1.3-5.9-2-2-.7-3.9-1.3-5.8-1.9-1.9-.6-3.8-1.2-5.8-1.8-1.9-.6-3.8-1.2-5.7-1.8-1.9-.6-3.8-1.1-5.6-1.7-1.9-.5-3.7-1.1-5.6-1.6-1.9-.5-3.7-1-5.5-1.5-1.8-.5-3.7-.9-5.5-1.4-1.8-.4-3.6-.8-5.4-1.3-1.8-.4-3.6-.8-5.3-1.1-1.8-.4-3.5-.7-5.3-1-1.7-.3-3.5-.6-5.2-.9-1.7-.3-3.4-.6-5.1-.8-1.7-.2-3.4-.5-5.1-.7-1.7-.2-3.3-.4-5-.6-1.6-.2-3.3-.3-4.9-.5-1.6-.2-3.2-.3-4.8-.4-1.6-.1-3.2-.2-4.8-.3-1.6,0-3.1-.2-4.7-.2-1.5,0-3.1,0-4.6-.1-1.5,0-3,0-4.5,0-1.5,0-3,0-4.4,0-1.5,0-2.9,0-4.3,0-1.4,0-2.9,0-4.2,0-2.8.1-5.6.2-8.2.4-2.7.2-5.3.4-7.8.5-2.6.2-5,.4-7.4.7-2.4.2-4.8.5-7,.7-2.3.3-4.5.5-6.6.8-2.1.3-4.2.5-6.2.7-2,.2-3.9.5-5.7.7-1.8.2-3.6.5-5.2.7-1.7.2-3.2.4-4.7.6-3,.4-5.7.8-8,1-2.3.3-4.3.5-5.8.7-3.2.4-4.8.5-4.8.5,0,0,1.6-1,4.8-2.8,1.6-.9,3.5-2,5.8-3.3,2.3-1.3,5-2.8,8-4.4,1.5-.8,3.1-1.7,4.7-2.5,1.7-.9,3.4-1.8,5.2-2.7,1.8-.9,3.7-1.9,5.7-2.9,2-1,4-2,6.2-3,2.1-1,4.3-2,6.6-3.1,2.3-1,4.6-2,7-3.1,2.4-1,4.9-2,7.4-3.1,2.5-1,5.2-2,7.8-3,2.7-1,5.4-1.9,8.2-2.8,1.4-.5,2.8-.9,4.2-1.3,1.4-.4,2.9-.9,4.3-1.3,1.5-.4,2.9-.8,4.4-1.2,1.5-.4,3-.8,4.5-1.1,1.5-.3,3.1-.7,4.6-1,1.5-.3,3.1-.6,4.7-.9,1.6-.3,3.2-.6,4.8-.8,1.6-.3,3.2-.5,4.8-.7,1.6-.2,3.3-.4,4.9-.6,1.7-.2,3.3-.3,5-.5,1.7-.1,3.4-.2,5.1-.3,1.7,0,3.4-.2,5.1-.2,1.7,0,3.5,0,5.2,0,1.8,0,3.5,0,5.3,0,1.8,0,3.6.2,5.3.2,1.8.1,3.6.2,5.4.4,1.8.2,3.6.3,5.5.5,1.8.2,3.7.4,5.5.7,1.8.3,3.7.5,5.6.9,1.9.3,3.7.6,5.6,1,1.9.4,3.8.7,5.7,1.1,1.9.4,3.8.8,5.8,1.3,1.9.4,3.9.9,5.8,1.4,1.9.5,3.9,1,5.9,1.5,2,.5,3.9,1.1,5.9,1.7,2,.6,4,1.2,5.9,1.8,2,.6,4,1.2,6,1.9,2,.6,4,1.3,6,1.9,2,.7,4,1.3,6.1,2,2,.7,4.1,1.4,6.1,2.1,2,.7,4.1,1.4,6.1,2.1,2,.7,4.1,1.4,6.1,2.1,2,.7,4,1.4,6,2.1,2,.7,4,1.4,6,2.1,2,.7,4,1.4,5.9,2.1,2,.7,3.9,1.4,5.9,2,2,.7,3.9,1.3,5.9,2,2,.7,3.9,1.3,5.8,1.9,1.9.6,3.9,1.2,5.8,1.8,1.9.6,3.8,1.2,5.7,1.8,1.9.6,3.8,1.1,5.6,1.7,1.9.5,3.7,1.1,5.6,1.6,1.9.5,3.7,1,5.5,1.5,1.8.5,3.7.9,5.5,1.4,1.8.4,3.6.8,5.4,1.2,1.8.4,3.6.8,5.3,1.1,1.8.4,3.5.7,5.3,1,1.7.3,3.5.6,5.2.9,1.7.3,3.4.6,5.1.8,1.7.2,3.4.5,5.1.7,1.7.2,3.3.4,5,.6,1.7.2,3.3.3,4.9.5,1.6.2,3.2.3,4.8.4,1.6.1,3.2.2,4.8.3,1.6,0,3.1.2,4.7.2,1.6,0,3.1.1,4.6.2,1.5,0,3,0,4.5,0,1.5,0,3,0,4.4,0,1.5,0,2.9,0,4.3,0,1.4,0,2.8,0,4.2-.1,2.8-.1,5.5-.2,8.2-.4,2.7-.2,5.3-.3,7.8-.5,2.5-.2,5-.4,7.4-.7,2.4-.2,4.8-.5,7-.7,2.3-.2,4.5-.5,6.6-.8,2.1-.2,4.2-.5,6.2-.7,2-.2,3.9-.5,5.7-.7,1.8-.2,3.6-.5,5.2-.7,1.7-.2,3.2-.4,4.7-.6,3-.4,5.7-.7,8-1,2.3-.3,4.3-.5,5.8-.7,3.2-.4,4.8-.5,4.8-.5Z"/>
    <path class="st3" d="M612,202.2s-1.7,1-4.8,2.8c-1.6.9-3.5,2-5.8,3.3-2.3,1.3-5,2.7-8,4.3-1.5.8-3.1,1.6-4.7,2.5-1.7.9-3.4,1.8-5.2,2.7-1.8.9-3.7,1.9-5.7,2.9-2,1-4,2-6.2,3-2.1,1-4.3,2-6.6,3-2.3,1-4.6,2.1-7,3.1-2.4,1-4.9,2-7.4,3-2.5,1-5.2,2-7.8,3-2.7.9-5.4,1.9-8.2,2.8-1.4.5-2.8.9-4.2,1.3-1.4.4-2.9.8-4.3,1.2-1.5.4-2.9.8-4.4,1.2-1.5.4-3,.8-4.5,1.1-1.5.3-3.1.7-4.6,1-1.5.3-3.1.6-4.7.9-1.6.3-3.2.6-4.8.8-1.6.2-3.2.5-4.8.7-1.6.2-3.3.4-4.9.6-1.6.2-3.3.3-5,.5-1.7.1-3.4.2-5.1.3-1.7,0-3.4.1-5.1.2-1.7,0-3.5,0-5.2,0-1.7,0-3.5,0-5.3,0-1.8,0-3.5-.2-5.3-.2-1.8-.1-3.6-.2-5.4-.4-1.8-.2-3.6-.3-5.5-.5-1.8-.2-3.7-.4-5.5-.7s-3.7-.5-5.6-.8c-1.9-.3-3.8-.6-5.6-1-1.9-.4-3.8-.7-5.7-1.1-1.9-.4-3.8-.8-5.8-1.3-1.9-.4-3.8-.9-5.8-1.4-1.9-.5-3.9-1-5.9-1.5-2-.5-3.9-1.1-5.9-1.6-2-.6-4-1.2-5.9-1.7-2-.6-4-1.2-6-1.9-2-.6-4-1.3-6-1.9-2-.7-4-1.3-6.1-2-2-.7-4.1-1.4-6.1-2.1-2-.7-4.1-1.4-6.1-2.1-2-.7-4.1-1.4-6.1-2.1-2-.7-4-1.4-6-2.1-2-.7-4-1.4-6-2.1-2-.7-4-1.4-5.9-2.1-2-.7-3.9-1.3-5.9-2-2-.7-3.9-1.3-5.9-1.9-2-.7-3.9-1.3-5.8-1.9-1.9-.6-3.8-1.2-5.8-1.8-1.9-.6-3.8-1.2-5.7-1.7-1.9-.6-3.8-1.1-5.6-1.6-1.9-.5-3.8-1.1-5.6-1.6-1.9-.5-3.7-1-5.5-1.4-1.8-.5-3.7-.9-5.5-1.3-1.8-.4-3.6-.8-5.4-1.2-1.8-.4-3.6-.8-5.3-1.1-1.8-.4-3.5-.7-5.3-1-1.7-.3-3.5-.6-5.2-.9-1.7-.3-3.4-.6-5.1-.8-1.7-.2-3.4-.5-5.1-.7-1.7-.2-3.3-.4-5-.6-1.6-.2-3.3-.3-4.9-.5-1.6-.2-3.2-.3-4.8-.4-1.6-.1-3.2-.2-4.8-.3-1.6,0-3.1-.2-4.7-.2-1.5,0-3.1,0-4.6-.1-1.5,0-3,0-4.5,0-1.5,0-3,0-4.4,0-1.5,0-2.9,0-4.3,0-1.4,0-2.9,0-4.2,0-2.8.1-5.6.2-8.2.4-2.7.2-5.3.4-7.8.5-2.6.2-5,.4-7.4.7-2.4.2-4.8.5-7,.7-2.3.3-4.5.5-6.6.8-2.1.3-4.2.5-6.2.7-2,.2-3.9.5-5.7.7-1.8.2-3.6.5-5.2.7-1.7.2-3.2.4-4.7.6-3,.4-5.7.7-8,1-2.3.3-4.3.5-5.8.7-3.2.4-4.8.5-4.8.5,0,0,1.6-1,4.8-2.8,1.6-.9,3.5-2,5.8-3.3,2.3-1.3,5-2.7,8-4.3,1.5-.8,3.1-1.6,4.7-2.5,1.7-.9,3.4-1.8,5.2-2.7,1.8-.9,3.7-1.9,5.7-2.9,2-1,4-2,6.2-3,2.1-1,4.3-2,6.6-3,2.3-1,4.6-2,7-3.1,2.4-1,4.9-2,7.4-3,2.5-1,5.2-2,7.8-2.9,2.7-.9,5.4-1.9,8.2-2.8,1.4-.5,2.8-.9,4.2-1.3,1.4-.4,2.9-.9,4.3-1.2,1.5-.4,2.9-.8,4.4-1.2,1.5-.4,3-.8,4.5-1.1,1.5-.3,3.1-.7,4.6-1,1.5-.3,3.1-.6,4.7-.9,1.6-.3,3.2-.6,4.8-.8,1.6-.3,3.2-.5,4.8-.7,1.6-.2,3.3-.4,4.9-.6,1.7-.2,3.3-.3,5-.5,1.7-.1,3.4-.2,5.1-.3,1.7,0,3.4-.2,5.1-.2,1.7,0,3.5,0,5.2,0,1.8,0,3.5,0,5.3,0,1.8,0,3.6.2,5.3.2,1.8.1,3.6.2,5.4.4,1.8.2,3.6.3,5.5.5,1.8.2,3.7.4,5.5.7,1.8.3,3.7.5,5.6.9,1.9.3,3.7.6,5.6,1,1.9.4,3.8.7,5.7,1.1,1.9.4,3.8.8,5.8,1.3,1.9.4,3.9.9,5.8,1.4,1.9.5,3.9,1,5.9,1.5,2,.5,3.9,1.1,5.9,1.6,2,.6,4,1.2,5.9,1.7,2,.6,4,1.2,6,1.9,2,.6,4,1.3,6,1.9,2,.7,4,1.3,6.1,2,2,.7,4.1,1.4,6.1,2.1,2,.7,4.1,1.4,6.1,2.1,2,.7,4.1,1.4,6.1,2.1,2,.7,4,1.4,6,2.1,2,.7,4,1.4,6,2.1,2,.7,4,1.4,5.9,2.1,2,.7,3.9,1.3,5.9,2,2,.7,3.9,1.3,5.9,2,2,.7,3.9,1.3,5.8,1.9,1.9.6,3.9,1.2,5.8,1.8,1.9.6,3.8,1.2,5.7,1.7,1.9.6,3.8,1.1,5.6,1.6,1.9.5,3.7,1.1,5.6,1.6,1.9.5,3.7,1,5.5,1.5,1.8.5,3.7.9,5.5,1.3,1.8.4,3.6.8,5.4,1.2,1.8.4,3.6.8,5.3,1.1,1.8.4,3.5.7,5.3,1,1.7.3,3.5.6,5.2.9,1.7.3,3.4.6,5.1.8,1.7.2,3.4.5,5.1.7,1.7.2,3.3.4,5,.6,1.7.2,3.3.3,4.9.5,1.6.1,3.2.3,4.8.4,1.6.1,3.2.2,4.8.3,1.6,0,3.1.2,4.7.2,1.6,0,3.1.1,4.6.2,1.5,0,3,0,4.5,0,1.5,0,3,0,4.4,0,1.5,0,2.9,0,4.3,0,1.4,0,2.8,0,4.2-.1,2.8-.1,5.5-.2,8.2-.4,2.7-.2,5.3-.3,7.8-.5,2.5-.2,5-.4,7.4-.6,2.4-.2,4.8-.5,7-.7,2.3-.2,4.5-.5,6.6-.8,2.1-.2,4.2-.5,6.2-.7,2-.2,3.9-.5,5.7-.7,1.8-.2,3.6-.5,5.2-.7,1.7-.2,3.2-.4,4.7-.6,3-.4,5.7-.7,8-1,2.3-.3,4.3-.5,5.8-.7,3.2-.4,4.8-.5,4.8-.5Z"/>
    <path class="st1" d="M494.5,380.1s-1.7,1-4.8,2.8c-1.6.9-3.5,2-5.8,3.3-2.3,1.3-5,2.8-8,4.4-1.5.8-3.1,1.7-4.7,2.5-1.7.9-3.4,1.8-5.2,2.7-1.8.9-3.7,1.9-5.7,2.9-2,1-4,2-6.2,3-2.1,1-4.3,2-6.6,3.1-2.3,1-4.6,2.1-7,3.1-2.4,1-4.9,2.1-7.4,3.1-2.5,1-5.2,2-7.8,3-2.7,1-5.4,1.9-8.2,2.8-1.4.5-2.8.9-4.2,1.4-1.4.4-2.9.8-4.3,1.3-1.5.4-2.9.8-4.4,1.2-1.5.4-3,.8-4.5,1.1-1.5.4-3.1.7-4.6,1-1.5.3-3.1.6-4.7.9-1.6.3-3.2.6-4.8.8-1.6.3-3.2.5-4.8.7-1.6.2-3.3.4-4.9.6-1.6.2-3.3.3-5,.5-1.7.1-3.4.2-5.1.3-1.7,0-3.4.1-5.1.2-1.7,0-3.5,0-5.2,0-1.7,0-3.5,0-5.3,0-1.8,0-3.5-.2-5.3-.3-1.8-.1-3.6-.3-5.4-.4-1.8-.2-3.6-.3-5.5-.5-1.8-.2-3.7-.4-5.5-.7-1.9-.3-3.7-.5-5.6-.9-1.9-.3-3.8-.6-5.6-1-1.9-.4-3.8-.8-5.7-1.1-1.9-.4-3.8-.8-5.8-1.3-1.9-.4-3.8-.9-5.8-1.4-1.9-.5-3.9-1-5.9-1.6-2-.5-3.9-1.1-5.9-1.7-2-.6-4-1.2-5.9-1.8-2-.6-4-1.2-6-1.9-2-.6-4-1.3-6-2-2-.7-4-1.4-6.1-2-2-.7-4.1-1.4-6.1-2.1-2-.7-4.1-1.4-6.1-2.1-2-.7-4.1-1.4-6.1-2.2-2-.7-4-1.4-6-2.2-2-.7-4-1.4-6-2.1-2-.7-4-1.4-5.9-2.1-2-.7-3.9-1.4-5.9-2.1-2-.7-3.9-1.3-5.9-2-2-.7-3.9-1.3-5.8-1.9-1.9-.6-3.8-1.2-5.8-1.8-1.9-.6-3.8-1.2-5.7-1.8-1.9-.6-3.8-1.1-5.6-1.7-1.9-.5-3.7-1.1-5.6-1.6-1.9-.5-3.7-1-5.5-1.5-1.8-.5-3.7-.9-5.5-1.4-1.8-.4-3.6-.9-5.4-1.3-1.8-.4-3.6-.8-5.3-1.1-1.8-.4-3.5-.7-5.3-1-1.7-.3-3.5-.6-5.2-.9-1.7-.3-3.4-.6-5.1-.8-1.7-.3-3.4-.5-5.1-.7-1.7-.2-3.3-.4-5-.6-1.6-.2-3.3-.4-4.9-.5-1.6-.2-3.2-.3-4.8-.4-1.6-.1-3.2-.2-4.8-.3-1.6,0-3.1-.2-4.7-.2-1.6,0-3.1,0-4.6-.1-1.5,0-3,0-4.5,0-1.5,0-3,0-4.4,0-1.5,0-2.9,0-4.3,0-1.4,0-2.9,0-4.2,0-2.8.1-5.6.2-8.2.4-2.7.2-5.3.4-7.8.5-2.6.2-5,.4-7.4.7-2.4.2-4.8.5-7,.7-2.3.3-4.5.5-6.6.8-2.1.3-4.2.5-6.2.7-2,.3-3.9.5-5.7.7-1.8.3-3.6.5-5.2.7-1.7.2-3.2.4-4.7.6-3,.4-5.7.8-8,1-2.3.3-4.3.5-5.8.7-3.2.4-4.8.5-4.8.5,0,0,1.6-1,4.8-2.8,1.6-.9,3.5-2,5.8-3.3,2.3-1.3,5-2.8,8-4.4,1.5-.8,3.1-1.7,4.7-2.5,1.7-.9,3.4-1.8,5.2-2.7,1.8-.9,3.7-1.9,5.7-2.9,2-1,4-2,6.2-3,2.1-1,4.3-2,6.6-3.1,2.3-1,4.6-2.1,7-3.1,2.4-1,4.9-2.1,7.4-3.1,2.5-1,5.2-2,7.8-3,2.7-1,5.4-1.9,8.2-2.8,1.4-.5,2.8-.9,4.2-1.3,1.4-.4,2.9-.9,4.3-1.3,1.5-.4,2.9-.8,4.4-1.2,1.5-.4,3-.8,4.5-1.1,1.5-.4,3.1-.7,4.6-1,1.5-.3,3.1-.6,4.7-.9,1.6-.3,3.2-.6,4.8-.8,1.6-.3,3.2-.5,4.8-.7,1.6-.2,3.3-.4,4.9-.6,1.7-.2,3.3-.3,5-.5,1.7-.1,3.4-.2,5.1-.3,1.7,0,3.4-.2,5.1-.2,1.7,0,3.5,0,5.2,0,1.8,0,3.5,0,5.3,0,1.8,0,3.6.2,5.3.3,1.8.1,3.6.3,5.4.4,1.8.2,3.6.3,5.5.5,1.8.2,3.7.4,5.5.7,1.8.3,3.7.5,5.6.9,1.9.3,3.7.6,5.6,1,1.9.4,3.8.7,5.7,1.1,1.9.4,3.8.8,5.8,1.3,1.9.4,3.9.9,5.8,1.4,1.9.5,3.9,1,5.9,1.5,2,.5,3.9,1.1,5.9,1.7,2,.6,4,1.2,5.9,1.8,2,.6,4,1.2,6,1.9,2,.6,4,1.3,6,2,2,.7,4,1.4,6.1,2,2,.7,4.1,1.4,6.1,2.1,2,.7,4.1,1.4,6.1,2.1,2,.7,4.1,1.4,6.1,2.2,2,.7,4,1.4,6,2.2,2,.7,4,1.4,6,2.1,2,.7,4,1.4,5.9,2.1,2,.7,3.9,1.4,5.9,2.1,2,.7,3.9,1.3,5.9,2,2,.7,3.9,1.3,5.8,1.9,1.9.6,3.9,1.2,5.8,1.9,1.9.6,3.8,1.2,5.7,1.8,1.9.6,3.8,1.1,5.6,1.7,1.9.5,3.7,1.1,5.6,1.6,1.9.5,3.7,1,5.5,1.5,1.8.5,3.7.9,5.5,1.4,1.8.4,3.6.9,5.4,1.3,1.8.4,3.6.8,5.3,1.1,1.8.4,3.5.7,5.3,1,1.7.3,3.5.6,5.2.9,1.7.3,3.4.6,5.1.8,1.7.3,3.4.5,5.1.7,1.7.2,3.3.4,5,.6,1.7.2,3.3.4,4.9.5,1.6.2,3.2.3,4.8.4,1.6.1,3.2.2,4.8.3,1.6,0,3.1.2,4.7.2,1.6,0,3.1.1,4.6.2,1.5,0,3,0,4.5,0,1.5,0,3,0,4.4,0,1.5,0,2.9,0,4.3,0,1.4,0,2.8,0,4.2-.1,2.8-.1,5.5-.2,8.2-.4,2.7-.2,5.3-.3,7.8-.5,2.5-.2,5-.4,7.4-.7,2.4-.2,4.8-.5,7-.7,2.3-.3,4.5-.5,6.6-.8,2.1-.2,4.2-.5,6.2-.7,2-.3,3.9-.5,5.7-.7,1.8-.2,3.6-.5,5.2-.7,1.7-.2,3.2-.4,4.7-.6,3-.4,5.7-.7,8-1,2.3-.3,4.3-.5,5.8-.7,3.2-.4,4.8-.5,4.8-.5Z"/>
    <path class="st2" d="M530,319.5s-1.7,1-4.8,2.8c-1.6.9-3.5,2-5.8,3.3-2.3,1.3-5,2.7-8,4.4-1.5.8-3.1,1.6-4.7,2.5-1.7.9-3.4,1.8-5.2,2.7-1.8.9-3.7,1.9-5.7,2.9-2,1-4,2-6.2,3-2.1,1-4.3,2-6.6,3.1-2.3,1-4.6,2.1-7,3.1-2.4,1-4.9,2-7.4,3-2.5,1-5.2,2-7.8,3-2.7.9-5.4,1.9-8.2,2.8-1.4.5-2.8.9-4.2,1.3-1.4.4-2.9.8-4.3,1.2-1.5.4-2.9.8-4.4,1.2-1.5.4-3,.8-4.5,1.1-1.5.3-3.1.7-4.6,1-1.5.3-3.1.6-4.7.9-1.6.3-3.2.6-4.8.8-1.6.2-3.2.5-4.8.7-1.6.2-3.3.4-4.9.6-1.6.2-3.3.3-5,.5-1.7.1-3.4.2-5.1.3-1.7,0-3.4.1-5.1.2-1.7,0-3.5,0-5.2,0-1.7,0-3.5,0-5.3,0-1.8,0-3.5-.2-5.3-.2-1.8-.1-3.6-.2-5.4-.4-1.8-.2-3.6-.3-5.5-.5-1.8-.2-3.7-.4-5.5-.7s-3.7-.5-5.6-.8c-1.9-.3-3.8-.6-5.6-1-1.9-.4-3.8-.7-5.7-1.1-1.9-.4-3.8-.8-5.8-1.3-1.9-.4-3.8-.9-5.8-1.4-1.9-.5-3.9-1-5.9-1.5s-3.9-1.1-5.9-1.6c-2-.6-4-1.2-5.9-1.8-2-.6-4-1.2-6-1.9-2-.6-4-1.3-6-1.9-2-.7-4-1.3-6.1-2-2-.7-4.1-1.4-6.1-2.1-2-.7-4.1-1.4-6.1-2.1-2-.7-4.1-1.4-6.1-2.1-2-.7-4-1.4-6-2.1-2-.7-4-1.4-6-2.1-2-.7-4-1.4-5.9-2.1-2-.7-3.9-1.4-5.9-2-2-.7-3.9-1.3-5.9-2-2-.7-3.9-1.3-5.8-1.9-1.9-.6-3.8-1.2-5.8-1.8-1.9-.6-3.8-1.2-5.7-1.7-1.9-.6-3.8-1.1-5.6-1.7-1.9-.5-3.8-1.1-5.6-1.6-1.9-.5-3.7-1-5.5-1.5-1.8-.5-3.7-.9-5.5-1.4-1.8-.4-3.6-.8-5.4-1.2-1.8-.4-3.6-.8-5.3-1.1-1.8-.4-3.5-.7-5.3-1-1.7-.3-3.5-.6-5.2-.9-1.7-.3-3.4-.6-5.1-.8-1.7-.2-3.4-.5-5.1-.7-1.7-.2-3.3-.4-5-.6-1.6-.2-3.3-.3-4.9-.5-1.6-.2-3.2-.3-4.8-.4-1.6-.1-3.2-.2-4.8-.3-1.6,0-3.1-.2-4.7-.2-1.5,0-3.1,0-4.6-.1-1.5,0-3,0-4.5,0-1.5,0-3,0-4.4,0-1.5,0-2.9,0-4.3,0-1.4,0-2.8,0-4.2,0-2.8.1-5.6.2-8.2.4-2.7.2-5.3.4-7.8.5-2.6.2-5,.4-7.4.7-2.4.2-4.8.5-7,.7-2.3.3-4.5.5-6.6.8-2.1.3-4.2.5-6.2.7-2,.2-3.9.5-5.7.7-1.8.2-3.6.5-5.2.7-1.7.2-3.2.4-4.7.6-3,.4-5.7.7-8,1-2.3.3-4.3.5-5.8.7-3.2.4-4.8.5-4.8.5,0,0,1.6-1,4.8-2.8,1.6-.9,3.5-2,5.8-3.3,2.3-1.3,5-2.7,8-4.4,1.5-.8,3.1-1.7,4.7-2.5,1.7-.9,3.4-1.8,5.2-2.7,1.8-.9,3.7-1.9,5.7-2.9,2-1,4-2,6.2-3,2.1-1,4.3-2,6.6-3.1,2.3-1,4.6-2,7-3.1,2.4-1,4.9-2,7.4-3.1,2.5-1,5.2-2,7.8-3,2.7-1,5.4-1.9,8.2-2.8,1.4-.5,2.8-.9,4.2-1.3,1.4-.4,2.9-.9,4.3-1.3,1.5-.4,2.9-.8,4.4-1.2,1.5-.4,3-.8,4.5-1.1,1.5-.3,3.1-.7,4.6-1,1.5-.3,3.1-.6,4.7-.9,1.6-.3,3.2-.6,4.8-.8,1.6-.3,3.2-.5,4.8-.7,1.6-.2,3.3-.4,4.9-.6,1.7-.2,3.3-.3,5-.5,1.7-.1,3.4-.2,5.1-.3,1.7,0,3.4-.2,5.1-.2,1.7,0,3.5,0,5.2,0,1.8,0,3.5,0,5.3,0,1.8,0,3.6.2,5.3.2,1.8.1,3.6.2,5.4.4,1.8.2,3.6.3,5.5.5,1.8.2,3.7.4,5.5.7,1.8.3,3.7.5,5.6.9,1.9.3,3.7.6,5.6,1,1.9.4,3.8.7,5.7,1.1,1.9.4,3.8.8,5.8,1.3,1.9.4,3.9.9,5.8,1.4,1.9.5,3.9,1,5.9,1.5,2,.5,3.9,1.1,5.9,1.6,2,.6,4,1.2,5.9,1.8,2,.6,4,1.2,6,1.9,2,.6,4,1.3,6,1.9,2,.7,4,1.3,6.1,2,2,.7,4.1,1.4,6.1,2.1,2,.7,4.1,1.4,6.1,2.1,2,.7,4.1,1.4,6.1,2.1,2,.7,4,1.4,6,2.1,2,.7,4,1.4,6,2.1,2,.7,4,1.4,5.9,2.1,2,.7,3.9,1.4,5.9,2,2,.7,3.9,1.3,5.9,2,2,.7,3.9,1.3,5.8,1.9,1.9.6,3.9,1.2,5.8,1.8,1.9.6,3.8,1.2,5.7,1.7,1.9.6,3.8,1.1,5.6,1.7,1.9.5,3.7,1.1,5.6,1.6,1.9.5,3.7,1,5.5,1.5,1.8.5,3.7.9,5.5,1.4,1.8.4,3.6.8,5.4,1.2s3.6.8,5.3,1.1c1.8.4,3.5.7,5.3,1,1.7.3,3.5.6,5.2.9,1.7.3,3.4.6,5.1.8,1.7.2,3.4.5,5.1.7,1.7.2,3.3.4,5,.6,1.7.2,3.3.3,4.9.5,1.6.2,3.2.3,4.8.4,1.6.1,3.2.2,4.8.3,1.6,0,3.1.2,4.7.2,1.6,0,3.1.1,4.6.2,1.5,0,3,0,4.5,0,1.5,0,3,0,4.4,0,1.5,0,2.9,0,4.3,0,1.4,0,2.8,0,4.2-.1,2.8-.1,5.5-.2,8.2-.4,2.7-.2,5.3-.3,7.8-.5,2.5-.2,5-.4,7.4-.7,2.4-.2,4.8-.5,7-.7,2.3-.2,4.5-.5,6.6-.8,2.1-.2,4.2-.5,6.2-.7,2-.2,3.9-.5,5.7-.7,1.8-.2,3.6-.5,5.2-.7,1.7-.2,3.2-.4,4.7-.6,3-.4,5.7-.7,8-1,2.3-.3,4.3-.5,5.8-.7,3.2-.4,4.8-.5,4.8-.5Z"/>
  </g>
  <g>
    <g>
      <path d="M833,252h50.2l-75.8,185.2-56.5-105.5-56.2,105.5-75.8-185.2h50l34.5,99.8,47.5-108.5,48,108.5,34-99.8Z"/>
      <path d="M904,372.8l2,9.2-21.8,45h-47.8l92-186,92.2,186h-48l-21-43.2,1.5-10.8-24.8-56.8-24.5,56.5ZM885.8,361h86.8l2.8,32.2h-92.5l3-32.2Z"/>
      <path d="M1107.5,252h49.5l-92.2,186-92-186h49.2l42.8,104.5,42.8-104.5Z"/>
      <path d="M1208.3,252v175h-40.5v-175h40.5ZM1195.8,252h88.2v34.8h-88.2v-34.8ZM1195.8,318h83.2v34h-83.2v-34ZM1195.8,392.2h88.2v34.8h-88.2v-34.8Z"/>
      <path d="M1419.3,367.1c4.8,7.8,11.2,13.6,19.1,17.6,7.9,4,16.6,6,26.1,6s15.7-1.1,22-3.2c6.3-2.2,12-5,17-8.5s9.4-7.2,13.2-11.2v45.5c-7,5.5-14.7,9.8-23,13-8.3,3.2-18.9,4.8-31.8,4.8s-26.9-2.2-38.8-6.5c-11.8-4.3-22-10.6-30.5-18.8-8.5-8.2-15.1-17.8-19.8-29-4.7-11.2-7-23.6-7-37.2s2.3-26.1,7-37.2c4.7-11.2,11.2-20.8,19.8-29,8.5-8.2,18.7-14.4,30.5-18.8,11.8-4.3,24.8-6.5,38.8-6.5s23.4,1.6,31.8,4.8c8.3,3.2,16,7.5,23,13v45.5c-3.8-4-8.2-7.8-13.2-11.4-5-3.6-10.7-6.4-17-8.5-6.3-2.1-13.7-3.1-22-3.1s-18.2,2-26.1,6c-7.9,4-14.3,9.8-19.1,17.5-4.8,7.7-7.2,16.9-7.2,27.8s2.4,19.9,7.2,27.6Z"/>
      <path d="M1583.5,252v175h-42.2v-175h42.2ZM1553,315.8h132.5v38h-132.5v-38ZM1701,252v175h-42.2v-175h42.2Z"/>
      <path d="M1776.5,372.8l2,9.2-21.8,45h-47.8l92-186,92.2,186h-48l-21-43.2,1.5-10.8-24.8-56.8-24.5,56.5ZM1758.3,361h86.8l2.8,32.2h-92.5l3-32.2Z"/>
      <path d="M1866.5,252h138.5v37.8h-48.2v137.2h-42.2v-137.2h-48v-37.8Z"/>
    </g>
    <g>
      <path class="st4" d="M833,252h50.2l-75.8,185.2-56.5-105.5-56.2,105.5-75.8-185.2h50l34.5,99.8,47.5-108.5,48,108.5,34-99.8Z"/>
      <path class="st4" d="M904,372.8l2,9.2-21.8,45h-47.8l92-186,92.2,186h-48l-21-43.2,1.5-10.8-24.8-56.8-24.5,56.5ZM885.8,361h86.8l2.8,32.2h-92.5l3-32.2Z"/>
      <path class="st4" d="M1107.5,252h49.5l-92.2,186-92-186h49.2l42.8,104.5,42.8-104.5Z"/>
      <path class="st4" d="M1208.3,252v175h-40.5v-175h40.5ZM1195.8,252h88.2v34.8h-88.2v-34.8ZM1195.8,318h83.2v34h-83.2v-34ZM1195.8,392.2h88.2v34.8h-88.2v-34.8Z"/>
      <path class="st4" d="M1419.3,367.1c4.8,7.8,11.2,13.6,19.1,17.6,7.9,4,16.6,6,26.1,6s15.7-1.1,22-3.2c6.3-2.2,12-5,17-8.5s9.4-7.2,13.2-11.2v45.5c-7,5.5-14.7,9.8-23,13-8.3,3.2-18.9,4.8-31.8,4.8s-26.9-2.2-38.8-6.5c-11.8-4.3-22-10.6-30.5-18.8-8.5-8.2-15.1-17.8-19.8-29-4.7-11.2-7-23.6-7-37.2s2.3-26.1,7-37.2c4.7-11.2,11.2-20.8,19.8-29,8.5-8.2,18.7-14.4,30.5-18.8,11.8-4.3,24.8-6.5,38.8-6.5s23.4,1.6,31.8,4.8c8.3,3.2,16,7.5,23,13v45.5c-3.8-4-8.2-7.8-13.2-11.4-5-3.6-10.7-6.4-17-8.5-6.3-2.1-13.7-3.1-22-3.1s-18.2,2-26.1,6c-7.9,4-14.3,9.8-19.1,17.5-4.8,7.7-7.2,16.9-7.2,27.8s2.4,19.9,7.2,27.6Z"/>
      <path class="st4" d="M1583.5,252v175h-42.2v-175h42.2ZM1553,315.8h132.5v38h-132.5v-38ZM1701,252v175h-42.2v-175h42.2Z"/>
      <path class="st4" d="M1776.5,372.8l2,9.2-21.8,45h-47.8l92-186,92.2,186h-48l-21-43.2,1.5-10.8-24.8-56.8-24.5,56.5ZM1758.3,361h86.8l2.8,32.2h-92.5l3-32.2Z"/>
      <path class="st4" d="M1866.5,252h138.5v37.8h-48.2v137.2h-42.2v-137.2h-48v-37.8Z"/>
    </g>
  </g>
  <text/>
</svg>