<?xml version="1.0" encoding="UTF-8"?>
<svg id="icon" xmlns="http://www.w3.org/2000/svg" version="1.1" viewBox="0 0 800 800">
  <!-- Generator: Adobe Illustrator 29.1.0, SVG Export Plug-In . SVG Version: 2.1.0 Build 142)  -->
  <defs>
    <style>
      .st0 {
        fill: #5f605f;
      }

      .st1 {
        fill: none;
      }

      .st2 {
        fill: #d9d9d9;
      }
    </style>
  </defs>
  <rect class="st0" x="184" y="401.8" width="432" height="305" rx="137" ry="137" transform="translate(12.7 -8.9) rotate(1.3)"/>
  <rect class="st0" x="260" y="177" width="292" height="268"/>
  <path id="_inner-path_" class="st1" d="M200.2,623.3c.9-68.3,56.5-123.2,124.8-123.3h150c68.3,0,123.9,54.9,124.8,123.3-113.6,102.3-286.1,102.3-399.6,0h0ZM512.5,312.5c0,62.1-50.4,112.5-112.5,112.5s-112.5-50.4-112.5-112.5,50.4-112.5,112.5-112.5,112.5,50.4,112.5,112.5Z"/>
  <path class="st2" d="M668.7,623.3c123.4-148.6,103.1-369.1-45.5-492.5C474.7,7.3,254.2,27.7,130.7,176.2c-52.2,62.9-80.8,142-80.7,223.8,0,81.7,28.8,160.7,81.3,223.3l-.5.4c1.8,2.1,3.8,3.9,5.6,6,2.3,2.6,4.7,5,7,7.5,7,7.6,14.2,14.9,21.7,21.8,2.3,2.1,4.7,4,7,6,8,6.9,16.2,13.4,24.8,19.5,1.1.8,2.1,1.7,3.2,2.5v-.3c120,84.4,280,84.4,400,0v.3c1.1-.8,2.1-1.7,3.2-2.5,8.5-6.1,16.8-12.6,24.7-19.5,2.3-2,4.7-4,7-6,7.6-6.9,14.8-14.2,21.8-21.8,2.3-2.5,4.7-4.9,7-7.5,1.8-2.1,3.8-3.9,5.6-6l-.5-.4ZM400,200c62.1,0,112.5,50.4,112.5,112.5s-50.4,112.5-112.5,112.5-112.5-50.4-112.5-112.5,50.4-112.5,112.5-112.5ZM200.2,623.3c.9-68.3,56.5-123.2,124.8-123.3h150c68.3,0,123.9,54.9,124.8,123.3-113.6,102.3-286.1,102.3-399.6,0h0Z"/>
  <rect id="_Transparent_Rectangle_" class="st1" width="800" height="800"/>
</svg>